<svg xmlns="http://www.w3.org/2000/svg" viewBox="0 0 1200 750" role="img" aria-labelledby="title desc">
  <title id="title">Kaidra identity visibility dashboard concept</title>
  <desc id="desc">A clean blue and mint interface mockup showing identity visibility metrics and access activity.</desc>
  <defs>
    <linearGradient id="bg" x1="0" y1="0" x2="1" y2="1">
      <stop offset="0" stop-color="#091326"/>
      <stop offset="1" stop-color="#183f68"/>
    </linearGradient>
    <linearGradient id="mint" x1="0" y1="0" x2="1" y2="0">
      <stop offset="0" stop-color="#54d8bc"/>
      <stop offset="1" stop-color="#9af0d8"/>
    </linearGradient>
  </defs>
  <rect width="1200" height="750" fill="url(#bg)"/>
  <circle cx="1020" cy="70" r="240" fill="#2e6bf0" opacity=".2"/>
  <circle cx="120" cy="690" r="220" fill="#43e0b8" opacity=".12"/>
  <rect x="72" y="66" width="1056" height="618" rx="24" fill="#f8fbff"/>
  <rect x="72" y="66" width="1056" height="70" rx="24" fill="#eaf2fb"/>
  <rect x="72" y="112" width="1056" height="24" fill="#eaf2fb"/>
  <text x="112" y="111" fill="#173453" font-family="Arial,sans-serif" font-size="28" font-weight="700">kaidra</text>
  <text x="930" y="108" fill="#66819d" font-family="Arial,sans-serif" font-size="16">IDENTITY VISIBILITY</text>
  <rect x="112" y="176" width="976" height="72" rx="14" fill="#173453"/>
  <text x="144" y="206" fill="#9af0d8" font-family="Arial,sans-serif" font-size="15" font-weight="700">ACCESS CONSOLE</text>
  <text x="144" y="229" fill="#5ea3d8" font-family="Arial,sans-serif" font-size="21" font-weight="700">See what matters. Act with confidence.</text>
  <rect x="112" y="278" width="300" height="132" rx="14" fill="#eef7f5"/>
  <rect x="434" y="278" width="300" height="132" rx="14" fill="#edf3fc"/>
  <rect x="756" y="278" width="332" height="132" rx="14" fill="#f4f0fb"/>
  <text x="140" y="315" fill="#58718b" font-family="Arial,sans-serif" font-size="16">Identities monitored</text>
  <text x="140" y="367" fill="#173453" font-family="Arial,sans-serif" font-size="38" font-weight="700">12,482</text>
  <text x="462" y="315" fill="#58718b" font-family="Arial,sans-serif" font-size="16">Active reviews</text>
  <text x="462" y="367" fill="#173453" font-family="Arial,sans-serif" font-size="38" font-weight="700">05</text>
  <text x="784" y="315" fill="#58718b" font-family="Arial,sans-serif" font-size="16">At-risk accounts</text>
  <text x="784" y="367" fill="#b4496a" font-family="Arial,sans-serif" font-size="38" font-weight="700">37</text>
  <rect x="112" y="446" width="650" height="190" rx="14" fill="#f5f8fc"/>
  <text x="140" y="482" fill="#173453" font-family="Arial,sans-serif" font-size="18" font-weight="700">Access activity</text>
  <polyline points="142,590 220,550 300,568 380,510 470,535 560,486 650,505 732,468" fill="none" stroke="#2e6bf0" stroke-width="8" stroke-linecap="round" stroke-linejoin="round"/>
  <line x1="142" y1="600" x2="732" y2="600" stroke="#d7e2ee" stroke-width="2"/>
  <rect x="784" y="446" width="304" height="190" rx="14" fill="#173453"/>
  <text x="812" y="482" fill="#9af0d8" font-family="Arial,sans-serif" font-size="16" font-weight="700">REVIEW LOOP</text>
  <text x="812" y="526" fill="#ffffff" font-family="Arial,sans-serif" font-size="17">Discover</text>
  <text x="812" y="560" fill="#ffffff" font-family="Arial,sans-serif" font-size="17">Certify</text>
  <text x="812" y="594" fill="#ffffff" font-family="Arial,sans-serif" font-size="17">Remediate</text>
  <circle cx="1050" cy="520" r="8" fill="url(#mint)"/>
  <circle cx="1050" cy="554" r="8" fill="url(#mint)"/>
  <circle cx="1050" cy="588" r="8" fill="url(#mint)"/>
</svg>
